<svg width="390" height="47" viewBox="0 0 390 47" fill="none" xmlns="http://www.w3.org/2000/svg">
<path d="M0 45.3H11.22V28.26C11.22 25.14 13.2 22.98 15.84 22.98C18.48 22.98 20.16 25.08 20.16 28.02V45.3H31.44V25.98C31.44 18.78 26.94 13.56 20.52 13.56C16.86 13.56 14.22 15.24 11.82 18.78H11.22V0.539978H0V45.3Z" fill="#2787F5"/>
<path d="M52.5853 46.08C63.2053 46.08 70.0453 39.96 70.0453 29.82C70.0453 19.74 63.2053 13.56 52.5853 13.56C41.8453 13.56 35.0653 19.68 35.0653 29.82C35.0653 39.9 41.9053 46.08 52.5853 46.08ZM52.5853 36.66C48.8653 36.66 46.3453 33.84 46.3453 29.82C46.3453 25.8 48.8653 22.98 52.5853 22.98C56.2453 22.98 58.8253 25.8 58.8253 29.82C58.8253 33.84 56.2453 36.66 52.5853 36.66Z" fill="#2787F5"/>
<path d="M90.6127 46.08C101.233 46.08 108.073 39.96 108.073 29.82C108.073 19.74 101.233 13.56 90.6127 13.56C79.8727 13.56 73.0927 19.68 73.0927 29.82C73.0927 39.9 79.9327 46.08 90.6127 46.08ZM90.6127 36.66C86.8927 36.66 84.3727 33.84 84.3727 29.82C84.3727 25.8 86.8927 22.98 90.6127 22.98C94.2727 22.98 96.8527 25.8 96.8527 29.82C96.8527 33.84 94.2727 36.66 90.6127 36.66Z" fill="#2787F5"/>
<path d="M112.03 45.3H123.25V28.26C123.25 25.2 125.29 23.04 127.93 23.04C130.57 23.04 132.25 25.08 132.25 28.08V45.3H143.47V25.98C143.47 18.84 138.97 13.62 132.55 13.62C128.89 13.62 126.31 15.3 123.85 18.9H123.25V14.34H112.03V45.3Z" fill="#2787F5"/>
<path d="M160.897 46.08C164.917 46.08 167.797 44.52 169.837 41.7H170.437V45.3H181.657V0.539978H170.437V17.94H169.837C167.797 15.12 164.797 13.56 160.837 13.56C152.737 13.56 147.157 19.98 147.157 29.82C147.157 39.78 152.677 46.08 160.897 46.08ZM164.677 36.66C161.017 36.66 158.437 33.72 158.437 29.82C158.437 25.92 161.017 22.98 164.677 22.98C168.277 22.98 170.917 25.92 170.917 29.82C170.917 33.72 168.277 36.66 164.677 36.66Z" fill="#2787F5"/>
<path d="M202.993 46.08C210.913 46.08 217.273 42.54 218.833 36.72L209.173 34.98C208.213 36.96 206.293 38.34 203.593 38.34C200.233 38.34 197.953 36.24 197.233 32.88H219.853C219.973 32.28 220.033 30.72 220.033 29.82C220.033 19.92 213.313 13.56 203.113 13.56C192.853 13.56 185.653 19.86 185.653 29.7C185.653 39.66 192.733 46.08 202.993 46.08ZM197.113 26.88C197.713 23.46 199.753 21.3 202.873 21.3C206.053 21.3 208.393 23.82 208.693 26.88H197.113Z" fill="#2787F5"/>
<path d="M230.338 45.3H246.718L256.918 14.34H244.978L238.798 36H238.198L232.018 14.34H220.138L230.338 45.3Z" fill="#2787F5"/>
<path d="M264.62 45.3H269.6V18.96H277.28V15H269.6V9.36C269.6 6.42 271.4 4.5 274.04 4.5C275.24 4.5 276.32 4.74 277.34 5.04V0.720001C275.96 0.3 274.46 0 272.72 0C267.92 0 264.62 3.48 264.62 8.88V15H259.76V18.96H264.62V45.3Z" fill="#EBEBEB"/>
<path d="M297.246 46.5C303.966 46.5 309.426 43.38 311.886 38.22L307.746 36.12C305.826 39.72 301.866 42 297.366 42C291.186 42 286.746 37.92 286.026 31.8H312.846C312.906 31.14 312.906 30.42 312.906 29.82C312.906 20.52 306.246 13.8 297.006 13.8C287.646 13.8 280.926 20.52 280.926 29.76C280.926 39.48 287.766 46.5 297.246 46.5ZM286.086 27.42C286.926 21.96 291.186 18.3 296.766 18.3C302.526 18.3 306.786 21.96 307.686 27.42H286.086Z" fill="#EBEBEB"/>
<path d="M335.332 46.5C342.052 46.5 347.512 43.38 349.972 38.22L345.832 36.12C343.912 39.72 339.952 42 335.452 42C329.272 42 324.832 37.92 324.112 31.8H350.932C350.992 31.14 350.992 30.42 350.992 29.82C350.992 20.52 344.332 13.8 335.092 13.8C325.732 13.8 319.012 20.52 319.012 29.76C319.012 39.48 325.852 46.5 335.332 46.5ZM324.172 27.42C325.012 21.96 329.272 18.3 334.852 18.3C340.612 18.3 344.872 21.96 345.772 27.42H324.172Z" fill="#EBEBEB"/>
<path d="M372.818 46.5C377.738 46.5 381.638 44.34 383.858 40.62H384.458V45.3H389.438V1.2H384.458V19.5H383.858C381.638 15.84 377.618 13.8 372.758 13.8C363.878 13.8 357.098 20.64 357.098 30.12C357.098 39.6 363.938 46.5 372.818 46.5ZM373.358 42C366.878 42 362.078 36.9 362.078 30.12C362.078 23.46 366.818 18.3 373.358 18.3C379.838 18.3 384.578 23.46 384.578 30.12C384.578 36.78 379.838 42 373.358 42Z" fill="#EBEBEB"/>
</svg>
