<svg width="391" height="48" viewBox="0 0 391 48" fill="none" xmlns="http://www.w3.org/2000/svg">
<path d="M0.700012 46H11.92V28.96C11.92 25.84 13.9 23.68 16.54 23.68C19.18 23.68 20.86 25.78 20.86 28.72V46H32.14V26.68C32.14 19.48 27.64 14.26 21.22 14.26C17.56 14.26 14.92 15.94 12.52 19.48H11.92V1.23999H0.700012V46Z" fill="#2787F5"/>
<path d="M53.2853 46.78C63.9053 46.78 70.7453 40.66 70.7453 30.52C70.7453 20.44 63.9053 14.26 53.2853 14.26C42.5453 14.26 35.7653 20.38 35.7653 30.52C35.7653 40.6 42.6053 46.78 53.2853 46.78ZM53.2853 37.36C49.5653 37.36 47.0453 34.54 47.0453 30.52C47.0453 26.5 49.5653 23.68 53.2853 23.68C56.9453 23.68 59.5253 26.5 59.5253 30.52C59.5253 34.54 56.9453 37.36 53.2853 37.36Z" fill="#2787F5"/>
<path d="M91.3127 46.78C101.933 46.78 108.773 40.66 108.773 30.52C108.773 20.44 101.933 14.26 91.3127 14.26C80.5727 14.26 73.7927 20.38 73.7927 30.52C73.7927 40.6 80.6327 46.78 91.3127 46.78ZM91.3127 37.36C87.5927 37.36 85.0727 34.54 85.0727 30.52C85.0727 26.5 87.5927 23.68 91.3127 23.68C94.9727 23.68 97.5527 26.5 97.5527 30.52C97.5527 34.54 94.9727 37.36 91.3127 37.36Z" fill="#2787F5"/>
<path d="M112.73 46H123.95V28.96C123.95 25.9 125.99 23.74 128.63 23.74C131.27 23.74 132.95 25.78 132.95 28.78V46H144.17V26.68C144.17 19.54 139.67 14.32 133.25 14.32C129.59 14.32 127.01 16 124.55 19.6H123.95V15.04H112.73V46Z" fill="#2787F5"/>
<path d="M161.597 46.78C165.617 46.78 168.497 45.22 170.537 42.4H171.137V46H182.357V1.23999H171.137V18.64H170.537C168.497 15.82 165.497 14.26 161.537 14.26C153.437 14.26 147.857 20.68 147.857 30.52C147.857 40.48 153.377 46.78 161.597 46.78ZM165.377 37.36C161.717 37.36 159.137 34.42 159.137 30.52C159.137 26.62 161.717 23.68 165.377 23.68C168.977 23.68 171.617 26.62 171.617 30.52C171.617 34.42 168.977 37.36 165.377 37.36Z" fill="#2787F5"/>
<path d="M203.693 46.78C211.613 46.78 217.973 43.24 219.533 37.42L209.873 35.68C208.913 37.66 206.993 39.04 204.293 39.04C200.933 39.04 198.653 36.94 197.933 33.58H220.553C220.673 32.98 220.733 31.42 220.733 30.52C220.733 20.62 214.013 14.26 203.813 14.26C193.553 14.26 186.353 20.56 186.353 30.4C186.353 40.36 193.433 46.78 203.693 46.78ZM197.813 27.58C198.413 24.16 200.453 22 203.573 22C206.753 22 209.093 24.52 209.393 27.58H197.813Z" fill="#2787F5"/>
<path d="M231.038 46H247.418L257.618 15.04H245.678L239.498 36.7H238.898L232.718 15.04H220.838L231.038 46Z" fill="#2787F5"/>
<path d="M265.32 46H270.3V19.66H277.98V15.7H270.3V10.06C270.3 7.12001 272.1 5.20002 274.74 5.20002C275.94 5.20002 277.02 5.44001 278.04 5.74002V1.42001C276.66 1.00001 275.16 0.700012 273.42 0.700012C268.62 0.700012 265.32 4.18001 265.32 9.58001V15.7H260.46V19.66H265.32V46Z" fill="#363738"/>
<path d="M297.946 47.2C304.666 47.2 310.126 44.08 312.586 38.92L308.446 36.82C306.526 40.42 302.566 42.7 298.066 42.7C291.886 42.7 287.446 38.62 286.726 32.5H313.546C313.606 31.84 313.606 31.12 313.606 30.52C313.606 21.22 306.946 14.5 297.706 14.5C288.346 14.5 281.626 21.22 281.626 30.46C281.626 40.18 288.466 47.2 297.946 47.2ZM286.786 28.12C287.626 22.66 291.886 19 297.466 19C303.226 19 307.486 22.66 308.386 28.12H286.786Z" fill="#363738"/>
<path d="M336.032 47.2C342.752 47.2 348.212 44.08 350.672 38.92L346.532 36.82C344.612 40.42 340.652 42.7 336.152 42.7C329.972 42.7 325.532 38.62 324.812 32.5H351.632C351.692 31.84 351.692 31.12 351.692 30.52C351.692 21.22 345.032 14.5 335.792 14.5C326.432 14.5 319.712 21.22 319.712 30.46C319.712 40.18 326.552 47.2 336.032 47.2ZM324.872 28.12C325.712 22.66 329.972 19 335.552 19C341.312 19 345.572 22.66 346.472 28.12H324.872Z" fill="#363738"/>
<path d="M373.518 47.2C378.438 47.2 382.338 45.04 384.558 41.32H385.158V46H390.138V1.90001H385.158V20.2H384.558C382.338 16.54 378.318 14.5 373.458 14.5C364.578 14.5 357.798 21.34 357.798 30.82C357.798 40.3 364.638 47.2 373.518 47.2ZM374.058 42.7C367.578 42.7 362.778 37.6 362.778 30.82C362.778 24.16 367.518 19 374.058 19C380.538 19 385.278 24.16 385.278 30.82C385.278 37.48 380.538 42.7 374.058 42.7Z" fill="#363738"/>
</svg>
