<svg width="406" height="47" viewBox="0 0 406 47" fill="none" xmlns="http://www.w3.org/2000/svg">
<path d="M21.84 11.94C25.88 11.94 29.12 13.14 31.56 15.54C34.04 17.94 35.28 21.56 35.28 26.4V45H23.88V28.26C23.88 23.82 22.1 21.6 18.54 21.6C16.58 21.6 15 22.24 13.8 23.52C12.64 24.8 12.06 26.72 12.06 29.28V45H0.659973V0.47998H12.06V15.48C13.3 14.32 14.76 13.44 16.44 12.84C18.12 12.24 19.92 11.94 21.84 11.94Z" fill="#2787F5"/>
<path d="M58.0261 45.54C54.5461 45.54 51.4061 44.82 48.6061 43.38C45.8061 41.94 43.6061 39.94 42.0061 37.38C40.4461 34.82 39.6661 31.92 39.6661 28.68C39.6661 25.48 40.4461 22.6 42.0061 20.04C43.6061 17.48 45.7861 15.5 48.5461 14.1C51.3461 12.66 54.5061 11.94 58.0261 11.94C61.5461 11.94 64.7061 12.66 67.5061 14.1C70.3061 15.5 72.4861 17.48 74.0461 20.04C75.6061 22.56 76.3861 25.44 76.3861 28.68C76.3861 31.92 75.6061 34.82 74.0461 37.38C72.4861 39.94 70.3061 41.94 67.5061 43.38C64.7061 44.82 61.5461 45.54 58.0261 45.54ZM58.0261 36.48C60.0261 36.48 61.6661 35.8 62.9461 34.44C64.2261 33.04 64.8661 31.12 64.8661 28.68C64.8661 26.28 64.2261 24.4 62.9461 23.04C61.6661 21.68 60.0261 21 58.0261 21C56.0261 21 54.3861 21.68 53.1061 23.04C51.8261 24.4 51.1861 26.28 51.1861 28.68C51.1861 31.12 51.8261 33.04 53.1061 34.44C54.3861 35.8 56.0261 36.48 58.0261 36.48Z" fill="#2787F5"/>
<path d="M96.787 45.54C93.307 45.54 90.167 44.82 87.367 43.38C84.567 41.94 82.367 39.94 80.767 37.38C79.207 34.82 78.427 31.92 78.427 28.68C78.427 25.48 79.207 22.6 80.767 20.04C82.367 17.48 84.547 15.5 87.307 14.1C90.107 12.66 93.267 11.94 96.787 11.94C100.307 11.94 103.467 12.66 106.267 14.1C109.067 15.5 111.247 17.48 112.807 20.04C114.367 22.56 115.147 25.44 115.147 28.68C115.147 31.92 114.367 34.82 112.807 37.38C111.247 39.94 109.067 41.94 106.267 43.38C103.467 44.82 100.307 45.54 96.787 45.54ZM96.787 36.48C98.787 36.48 100.427 35.8 101.707 34.44C102.987 33.04 103.627 31.12 103.627 28.68C103.627 26.28 102.987 24.4 101.707 23.04C100.427 21.68 98.787 21 96.787 21C94.787 21 93.147 21.68 91.867 23.04C90.587 24.4 89.947 26.28 89.947 28.68C89.947 31.12 90.587 33.04 91.867 34.44C93.147 35.8 94.787 36.48 96.787 36.48Z" fill="#2787F5"/>
<path d="M140.408 11.94C144.448 11.94 147.688 13.14 150.128 15.54C152.608 17.94 153.848 21.56 153.848 26.4V45H142.448V28.26C142.448 23.82 140.668 21.6 137.108 21.6C135.148 21.6 133.568 22.24 132.368 23.52C131.208 24.8 130.628 26.72 130.628 29.28V45H119.228V12.48H130.088V16.02C131.368 14.7 132.888 13.7 134.648 13.02C136.408 12.3 138.328 11.94 140.408 11.94Z" fill="#2787F5"/>
<path d="M194.834 0.47998V45H183.974V41.76C181.854 44.28 178.674 45.54 174.434 45.54C171.474 45.54 168.774 44.86 166.334 43.5C163.894 42.1 161.954 40.12 160.514 37.56C159.114 35 158.414 32.04 158.414 28.68C158.414 25.32 159.114 22.38 160.514 19.86C161.954 17.3 163.894 15.34 166.334 13.98C168.774 12.62 171.474 11.94 174.434 11.94C178.314 11.94 181.314 13.06 183.434 15.3V0.47998H194.834ZM176.834 36.48C178.794 36.48 180.414 35.8 181.694 34.44C182.974 33.04 183.614 31.12 183.614 28.68C183.614 26.28 182.974 24.4 181.694 23.04C180.454 21.68 178.834 21 176.834 21C174.834 21 173.194 21.68 171.914 23.04C170.634 24.4 169.994 26.28 169.994 28.68C169.994 31.12 170.634 33.04 171.914 34.44C173.194 35.8 174.834 36.48 176.834 36.48Z" fill="#2787F5"/>
<path d="M234.209 28.8C234.209 28.88 234.149 29.82 234.029 31.62H210.389C210.869 33.3 211.789 34.6 213.149 35.52C214.549 36.4 216.289 36.84 218.369 36.84C219.929 36.84 221.269 36.62 222.389 36.18C223.549 35.74 224.709 35.02 225.869 34.02L231.869 40.26C228.709 43.78 224.089 45.54 218.009 45.54C214.209 45.54 210.869 44.82 207.989 43.38C205.109 41.94 202.869 39.94 201.269 37.38C199.709 34.82 198.929 31.92 198.929 28.68C198.929 25.48 199.689 22.62 201.209 20.1C202.769 17.54 204.909 15.54 207.629 14.1C210.349 12.66 213.409 11.94 216.809 11.94C220.049 11.94 222.989 12.62 225.629 13.98C228.269 15.3 230.349 17.24 231.869 19.8C233.429 22.32 234.209 25.32 234.209 28.8ZM216.869 20.04C215.109 20.04 213.629 20.54 212.429 21.54C211.269 22.54 210.529 23.9 210.209 25.62H223.529C223.209 23.9 222.449 22.54 221.249 21.54C220.089 20.54 218.629 20.04 216.869 20.04Z" fill="#2787F5"/>
<path d="M271.939 12.48L258.499 45H246.739L233.359 12.48H245.059L252.859 32.34L261.079 12.48H271.939Z" fill="#2787F5"/>
<path d="M293.2 5.74C289.76 5.74 288.04 7.6 288.04 11.32V14.08H297.28V18.82H288.16V45.88H282.4V18.82H277V14.08H282.4V11.26C282.4 8.1 283.32 5.6 285.16 3.76C287 1.92 289.58 1 292.9 1C294.18 1 295.38 1.16 296.5 1.48C297.62 1.8 298.58 2.26 299.38 2.86L297.64 7.24C296.32 6.24 294.84 5.74 293.2 5.74Z" fill="#374151"/>
<path d="M330.984 30.16C330.984 30.6 330.944 31.18 330.864 31.9H305.064C305.424 34.7 306.644 36.96 308.724 38.68C310.844 40.36 313.464 41.2 316.584 41.2C320.384 41.2 323.444 39.92 325.764 37.36L328.944 41.08C327.504 42.76 325.704 44.04 323.544 44.92C321.424 45.8 319.044 46.24 316.404 46.24C313.044 46.24 310.064 45.56 307.464 44.2C304.864 42.8 302.844 40.86 301.404 38.38C300.004 35.9 299.304 33.1 299.304 29.98C299.304 26.9 299.984 24.12 301.344 21.64C302.744 19.16 304.644 17.24 307.044 15.88C309.484 14.48 312.224 13.78 315.264 13.78C318.304 13.78 321.004 14.48 323.364 15.88C325.764 17.24 327.624 19.16 328.944 21.64C330.304 24.12 330.984 26.96 330.984 30.16ZM315.264 18.64C312.504 18.64 310.184 19.48 308.304 21.16C306.464 22.84 305.384 25.04 305.064 27.76H325.464C325.144 25.08 324.044 22.9 322.164 21.22C320.324 19.5 318.024 18.64 315.264 18.64Z" fill="#374151"/>
<path d="M367.722 30.16C367.722 30.6 367.682 31.18 367.602 31.9H341.802C342.162 34.7 343.382 36.96 345.462 38.68C347.582 40.36 350.202 41.2 353.322 41.2C357.122 41.2 360.182 39.92 362.502 37.36L365.682 41.08C364.242 42.76 362.442 44.04 360.282 44.92C358.162 45.8 355.782 46.24 353.142 46.24C349.782 46.24 346.802 45.56 344.202 44.2C341.602 42.8 339.582 40.86 338.142 38.38C336.742 35.9 336.042 33.1 336.042 29.98C336.042 26.9 336.722 24.12 338.082 21.64C339.482 19.16 341.382 17.24 343.782 15.88C346.222 14.48 348.962 13.78 352.002 13.78C355.042 13.78 357.742 14.48 360.102 15.88C362.502 17.24 364.362 19.16 365.682 21.64C367.042 24.12 367.722 26.96 367.722 30.16ZM352.002 18.64C349.242 18.64 346.922 19.48 345.042 21.16C343.202 22.84 342.122 25.04 341.802 27.76H362.202C361.882 25.08 360.782 22.9 358.902 21.22C357.062 19.5 354.762 18.64 352.002 18.64Z" fill="#374151"/>
<path d="M405.72 1.36V45.88H400.2V40.84C398.92 42.6 397.3 43.94 395.34 44.86C393.38 45.78 391.22 46.24 388.86 46.24C385.78 46.24 383.02 45.56 380.58 44.2C378.14 42.84 376.22 40.94 374.82 38.5C373.46 36.02 372.78 33.18 372.78 29.98C372.78 26.78 373.46 23.96 374.82 21.52C376.22 19.08 378.14 17.18 380.58 15.82C383.02 14.46 385.78 13.78 388.86 13.78C391.14 13.78 393.24 14.22 395.16 15.1C397.08 15.94 398.68 17.2 399.96 18.88V1.36H405.72ZM389.34 41.2C391.34 41.2 393.16 40.74 394.8 39.82C396.44 38.86 397.72 37.54 398.64 35.86C399.56 34.14 400.02 32.18 400.02 29.98C400.02 27.78 399.56 25.84 398.64 24.16C397.72 22.44 396.44 21.12 394.8 20.2C393.16 19.28 391.34 18.82 389.34 18.82C387.3 18.82 385.46 19.28 383.82 20.2C382.22 21.12 380.94 22.44 379.98 24.16C379.06 25.84 378.6 27.78 378.6 29.98C378.6 32.18 379.06 34.14 379.98 35.86C380.94 37.54 382.22 38.86 383.82 39.82C385.46 40.74 387.3 41.2 389.34 41.2Z" fill="#374151"/>
</svg>
