<svg width="399" height="46" viewBox="0 0 399 46" fill="none" xmlns="http://www.w3.org/2000/svg">
<path d="M21.84 11.94C25.88 11.94 29.12 13.14 31.56 15.54C34.04 17.94 35.28 21.56 35.28 26.4V45H23.88V28.26C23.88 23.82 22.1 21.6 18.54 21.6C16.58 21.6 15 22.24 13.8 23.52C12.64 24.8 12.06 26.72 12.06 29.28V45H0.659973V0.47998H12.06V15.48C13.3 14.32 14.76 13.44 16.44 12.84C18.12 12.24 19.92 11.94 21.84 11.94Z" fill="#2787F5"/>
<path d="M58.0261 45.54C54.5461 45.54 51.4061 44.82 48.6061 43.38C45.8061 41.94 43.6061 39.94 42.0061 37.38C40.4461 34.82 39.6661 31.92 39.6661 28.68C39.6661 25.48 40.4461 22.6 42.0061 20.04C43.6061 17.48 45.7861 15.5 48.5461 14.1C51.3461 12.66 54.5061 11.94 58.0261 11.94C61.5461 11.94 64.7061 12.66 67.5061 14.1C70.3061 15.5 72.4861 17.48 74.0461 20.04C75.6061 22.56 76.3861 25.44 76.3861 28.68C76.3861 31.92 75.6061 34.82 74.0461 37.38C72.4861 39.94 70.3061 41.94 67.5061 43.38C64.7061 44.82 61.5461 45.54 58.0261 45.54ZM58.0261 36.48C60.0261 36.48 61.6661 35.8 62.9461 34.44C64.2261 33.04 64.8661 31.12 64.8661 28.68C64.8661 26.28 64.2261 24.4 62.9461 23.04C61.6661 21.68 60.0261 21 58.0261 21C56.0261 21 54.3861 21.68 53.1061 23.04C51.8261 24.4 51.1861 26.28 51.1861 28.68C51.1861 31.12 51.8261 33.04 53.1061 34.44C54.3861 35.8 56.0261 36.48 58.0261 36.48Z" fill="#2787F5"/>
<path d="M96.787 45.54C93.307 45.54 90.167 44.82 87.367 43.38C84.567 41.94 82.367 39.94 80.767 37.38C79.207 34.82 78.427 31.92 78.427 28.68C78.427 25.48 79.207 22.6 80.767 20.04C82.367 17.48 84.547 15.5 87.307 14.1C90.107 12.66 93.267 11.94 96.787 11.94C100.307 11.94 103.467 12.66 106.267 14.1C109.067 15.5 111.247 17.48 112.807 20.04C114.367 22.56 115.147 25.44 115.147 28.68C115.147 31.92 114.367 34.82 112.807 37.38C111.247 39.94 109.067 41.94 106.267 43.38C103.467 44.82 100.307 45.54 96.787 45.54ZM96.787 36.48C98.787 36.48 100.427 35.8 101.707 34.44C102.987 33.04 103.627 31.12 103.627 28.68C103.627 26.28 102.987 24.4 101.707 23.04C100.427 21.68 98.787 21 96.787 21C94.787 21 93.147 21.68 91.867 23.04C90.587 24.4 89.947 26.28 89.947 28.68C89.947 31.12 90.587 33.04 91.867 34.44C93.147 35.8 94.787 36.48 96.787 36.48Z" fill="#2787F5"/>
<path d="M140.408 11.94C144.448 11.94 147.688 13.14 150.128 15.54C152.608 17.94 153.848 21.56 153.848 26.4V45H142.448V28.26C142.448 23.82 140.668 21.6 137.108 21.6C135.148 21.6 133.568 22.24 132.368 23.52C131.208 24.8 130.628 26.72 130.628 29.28V45H119.228V12.48H130.088V16.02C131.368 14.7 132.888 13.7 134.648 13.02C136.408 12.3 138.328 11.94 140.408 11.94Z" fill="#2787F5"/>
<path d="M194.834 0.47998V45H183.974V41.76C181.854 44.28 178.674 45.54 174.434 45.54C171.474 45.54 168.774 44.86 166.334 43.5C163.894 42.1 161.954 40.12 160.514 37.56C159.114 35 158.414 32.04 158.414 28.68C158.414 25.32 159.114 22.38 160.514 19.86C161.954 17.3 163.894 15.34 166.334 13.98C168.774 12.62 171.474 11.94 174.434 11.94C178.314 11.94 181.314 13.06 183.434 15.3V0.47998H194.834ZM176.834 36.48C178.794 36.48 180.414 35.8 181.694 34.44C182.974 33.04 183.614 31.12 183.614 28.68C183.614 26.28 182.974 24.4 181.694 23.04C180.454 21.68 178.834 21 176.834 21C174.834 21 173.194 21.68 171.914 23.04C170.634 24.4 169.994 26.28 169.994 28.68C169.994 31.12 170.634 33.04 171.914 34.44C173.194 35.8 174.834 36.48 176.834 36.48Z" fill="#2787F5"/>
<path d="M234.209 28.8C234.209 28.88 234.149 29.82 234.029 31.62H210.389C210.869 33.3 211.789 34.6 213.149 35.52C214.549 36.4 216.289 36.84 218.369 36.84C219.929 36.84 221.269 36.62 222.389 36.18C223.549 35.74 224.709 35.02 225.869 34.02L231.869 40.26C228.709 43.78 224.089 45.54 218.009 45.54C214.209 45.54 210.869 44.82 207.989 43.38C205.109 41.94 202.869 39.94 201.269 37.38C199.709 34.82 198.929 31.92 198.929 28.68C198.929 25.48 199.689 22.62 201.209 20.1C202.769 17.54 204.909 15.54 207.629 14.1C210.349 12.66 213.409 11.94 216.809 11.94C220.049 11.94 222.989 12.62 225.629 13.98C228.269 15.3 230.349 17.24 231.869 19.8C233.429 22.32 234.209 25.32 234.209 28.8ZM216.869 20.04C215.109 20.04 213.629 20.54 212.429 21.54C211.269 22.54 210.529 23.9 210.209 25.62H223.529C223.209 23.9 222.449 22.54 221.249 21.54C220.089 20.54 218.629 20.04 216.869 20.04Z" fill="#2787F5"/>
<path d="M271.939 12.48L258.499 45H246.739L233.359 12.48H245.059L252.859 32.34L261.079 12.48H271.939Z" fill="#2787F5"/>
<path d="M291.38 3.77999C289.54 3.77999 288.14 4.27999 287.18 5.27999C286.26 6.27999 285.8 7.75999 285.8 9.72V13.44H295.52V17.04H285.92V45H281.66V17.04H276.02V13.44H281.66V9.53999C281.66 6.65999 282.48 4.37999 284.12 2.69999C285.8 1.01999 288.16 0.179993 291.2 0.179993C292.4 0.179993 293.56 0.359993 294.68 0.719993C295.8 1.03999 296.74 1.51999 297.5 2.15999L296.06 5.33999C294.82 4.29999 293.26 3.77999 291.38 3.77999Z" fill="#E1E3E6"/>
<path d="M327.025 30.54H300.625C300.865 33.82 302.125 36.48 304.405 38.52C306.685 40.52 309.565 41.52 313.045 41.52C315.005 41.52 316.805 41.18 318.445 40.5C320.085 39.78 321.505 38.74 322.705 37.38L325.105 40.14C323.705 41.82 321.945 43.1 319.825 43.98C317.745 44.86 315.445 45.3 312.925 45.3C309.685 45.3 306.805 44.62 304.285 43.26C301.805 41.86 299.865 39.94 298.465 37.5C297.065 35.06 296.365 32.3 296.365 29.22C296.365 26.14 297.025 23.38 298.345 20.94C299.705 18.5 301.545 16.6 303.865 15.24C306.225 13.88 308.865 13.2 311.785 13.2C314.705 13.2 317.325 13.88 319.645 15.24C321.965 16.6 323.785 18.5 325.105 20.94C326.425 23.34 327.085 26.1 327.085 29.22L327.025 30.54ZM311.785 16.86C308.745 16.86 306.185 17.84 304.105 19.8C302.065 21.72 300.905 24.24 300.625 27.36H323.005C322.725 24.24 321.545 21.72 319.465 19.8C317.425 17.84 314.865 16.86 311.785 16.86Z" fill="#E1E3E6"/>
<path d="M362.036 30.54H335.636C335.876 33.82 337.136 36.48 339.416 38.52C341.696 40.52 344.576 41.52 348.056 41.52C350.016 41.52 351.816 41.18 353.456 40.5C355.096 39.78 356.516 38.74 357.716 37.38L360.116 40.14C358.716 41.82 356.956 43.1 354.836 43.98C352.756 44.86 350.456 45.3 347.936 45.3C344.696 45.3 341.816 44.62 339.296 43.26C336.816 41.86 334.876 39.94 333.476 37.5C332.076 35.06 331.376 32.3 331.376 29.22C331.376 26.14 332.036 23.38 333.356 20.94C334.716 18.5 336.556 16.6 338.876 15.24C341.236 13.88 343.876 13.2 346.796 13.2C349.716 13.2 352.336 13.88 354.656 15.24C356.976 16.6 358.796 18.5 360.116 20.94C361.436 23.34 362.096 26.1 362.096 29.22L362.036 30.54ZM346.796 16.86C343.756 16.86 341.196 17.84 339.116 19.8C337.076 21.72 335.916 24.24 335.636 27.36H358.016C357.736 24.24 356.556 21.72 354.476 19.8C352.436 17.84 349.876 16.86 346.796 16.86Z" fill="#E1E3E6"/>
<path d="M398.367 0.479992V45H394.287V38.76C393.007 40.88 391.307 42.5 389.187 43.62C387.107 44.74 384.747 45.3 382.107 45.3C379.147 45.3 376.467 44.62 374.067 43.26C371.667 41.9 369.787 40 368.427 37.56C367.067 35.12 366.387 32.34 366.387 29.22C366.387 26.1 367.067 23.32 368.427 20.88C369.787 18.44 371.667 16.56 374.067 15.24C376.467 13.88 379.147 13.2 382.107 13.2C384.667 13.2 386.967 13.74 389.007 14.82C391.087 15.86 392.787 17.4 394.107 19.44V0.479992H398.367ZM382.467 41.52C384.667 41.52 386.647 41.02 388.407 40.02C390.207 38.98 391.607 37.52 392.607 35.64C393.647 33.76 394.167 31.62 394.167 29.22C394.167 26.82 393.647 24.68 392.607 22.8C391.607 20.92 390.207 19.48 388.407 18.48C386.647 17.44 384.667 16.92 382.467 16.92C380.227 16.92 378.207 17.44 376.407 18.48C374.647 19.48 373.247 20.92 372.207 22.8C371.207 24.68 370.707 26.82 370.707 29.22C370.707 31.62 371.207 33.76 372.207 35.64C373.247 37.52 374.647 38.98 376.407 40.02C378.207 41.02 380.227 41.52 382.467 41.52Z" fill="#E1E3E6"/>
</svg>
